<svg width="197" height="60" viewBox="0 0 197 60" fill="none" xmlns="http://www.w3.org/2000/svg">
<path d="M39.5328 3.02939L34.7195 9.84209C32.5967 12.7548 30.5233 16.1117 28.4992 19.913C26.5245 23.7143 24.6485 27.7871 22.8713 32.1315C21.1435 36.4758 19.6131 40.8695 18.2801 45.3125C16.9966 49.7556 15.9846 54.0753 15.244 58.2715H7.39464C8.28325 54.9145 9.4187 51.3847 10.801 47.6822C12.1833 43.9303 13.7383 40.203 15.4662 36.5005C17.1941 32.7486 19.0207 29.1447 20.946 25.689C22.9207 22.1839 24.9201 18.9997 26.9441 16.1364C28.9682 13.2238 30.9676 10.7801 32.9423 8.80538H20.946C14.8244 8.80538 9.61617 11.2737 5.32121 16.2105L5.025 16.0624L11.2453 0.141404H11.6155C12.751 1.86926 14.7997 2.73319 17.7618 2.73319H39.5328V3.02939ZM34.5639 29.0954C35.2056 25.2447 36.2423 21.6656 37.674 18.358C39.1057 15.0504 40.8088 12.1377 42.7835 9.61994C44.8076 7.1022 46.9797 5.15219 49.3 3.7699C51.6696 2.33825 54.138 1.62242 56.7051 1.62242C59.5684 1.62242 62.0121 2.51104 64.0362 4.28826C66.0602 6.06549 67.64 8.43512 68.7754 11.3972C69.9603 14.3098 70.7008 17.5681 70.997 21.1719C71.2932 24.7264 71.1204 28.3055 70.4786 31.9093C69.8368 35.76 68.8001 39.3391 67.3685 42.6467C65.9368 45.9543 64.209 48.867 62.1849 51.3847C60.2102 53.9025 58.038 55.8772 55.6684 57.3088C53.3481 58.6911 50.9291 59.3823 48.4114 59.3823C45.4987 59.3823 43.0304 58.4936 41.0063 56.7164C38.9822 54.9392 37.3778 52.5942 36.193 49.6816C35.0575 46.7195 34.3417 43.4613 34.0455 39.9068C33.7493 36.303 33.9221 32.6992 34.5639 29.0954ZM42.7095 29.6878C42.2158 32.7979 41.8702 35.9574 41.6728 39.1663C41.4753 42.3258 41.5247 45.2632 41.8209 47.9784C42.1171 50.6442 42.7835 52.8164 43.8202 54.4949C44.857 56.124 46.3627 56.9386 48.3374 56.9386C50.5589 56.9386 52.5583 55.8772 54.3355 53.7544C56.1127 51.5822 57.6678 48.5955 59.0007 44.7942C60.3336 40.9435 61.4197 36.4511 62.2589 31.3169C62.802 28.2068 63.1722 25.0719 63.3697 21.9124C63.5672 18.7035 63.4931 15.7662 63.1476 13.1003C62.8514 10.3851 62.1849 8.21297 61.1482 6.58385C60.1115 4.90535 58.6058 4.06611 56.6311 4.06611C54.4589 4.06611 52.4842 5.15219 50.707 7.32436C48.9298 9.44715 47.3747 12.4339 46.0418 16.2845C44.7088 20.0858 43.5981 24.5536 42.7095 29.6878ZM75.4597 29.0954C76.1015 25.2447 77.1382 21.6656 78.5698 18.358C80.0015 15.0504 81.7047 12.1377 83.6794 9.61994C85.7034 7.1022 87.8756 5.15219 90.1959 3.7699C92.5655 2.33825 95.0339 1.62242 97.601 1.62242C100.464 1.62242 102.908 2.51104 104.932 4.28826C106.956 6.06549 108.536 8.43512 109.671 11.3972C110.856 14.3098 111.597 17.5681 111.893 21.1719C112.189 24.7264 112.016 28.3055 111.374 31.9093C110.733 35.76 109.696 39.3391 108.264 42.6467C106.833 45.9543 105.105 48.867 103.081 51.3847C101.106 53.9025 98.9339 55.8772 96.5643 57.3088C94.244 58.6911 91.825 59.3823 89.3073 59.3823C86.3946 59.3823 83.9262 58.4936 81.9021 56.7164C79.8781 54.9392 78.2736 52.5942 77.0888 49.6816C75.9534 46.7195 75.2376 43.4613 74.9413 39.9068C74.6451 36.303 74.8179 32.6992 75.4597 29.0954ZM83.6053 29.6878C83.1116 32.7979 82.7661 35.9574 82.5686 39.1663C82.3711 42.3258 82.4205 45.2632 82.7167 47.9784C83.0129 50.6442 83.6794 52.8164 84.7161 54.4949C85.7528 56.124 87.2585 56.9386 89.2332 56.9386C91.4547 56.9386 93.4541 55.8772 95.2313 53.7544C97.0086 51.5822 98.5636 48.5955 99.8966 44.7942C101.229 40.9435 102.316 36.4511 103.155 31.3169C103.698 28.2068 104.068 25.0719 104.266 21.9124C104.463 18.7035 104.389 15.7662 104.043 13.1003C103.747 10.3851 103.081 8.21297 102.044 6.58385C101.007 4.90535 99.5016 4.06611 97.5269 4.06611C95.3548 4.06611 93.3801 5.15219 91.6028 7.32436C89.8256 9.44715 88.2705 12.4339 86.9376 16.2845C85.6047 20.0858 84.4939 24.5536 83.6053 29.6878ZM116.356 29.0954C116.997 25.2447 118.034 21.6656 119.466 18.358C120.897 15.0504 122.601 12.1377 124.575 9.61994C126.599 7.1022 128.771 5.15219 131.092 3.7699C133.461 2.33825 135.93 1.62242 138.497 1.62242C141.36 1.62242 143.804 2.51104 145.828 4.28826C147.852 6.06549 149.432 8.43512 150.567 11.3972C151.752 14.3098 152.492 17.5681 152.789 21.1719C153.085 24.7264 152.912 28.3055 152.27 31.9093C151.629 35.76 150.592 39.3391 149.16 42.6467C147.729 45.9543 146.001 48.867 143.977 51.3847C142.002 53.9025 139.83 55.8772 137.46 57.3088C135.14 58.6911 132.721 59.3823 130.203 59.3823C127.29 59.3823 124.822 58.4936 122.798 56.7164C120.774 54.9392 119.17 52.5942 117.985 49.6816C116.849 46.7195 116.133 43.4613 115.837 39.9068C115.541 36.303 115.714 32.6992 116.356 29.0954ZM124.501 29.6878C124.008 32.7979 123.662 35.9574 123.464 39.1663C123.267 42.3258 123.316 45.2632 123.613 47.9784C123.909 50.6442 124.575 52.8164 125.612 54.4949C126.649 56.124 128.154 56.9386 130.129 56.9386C132.351 56.9386 134.35 55.8772 136.127 53.7544C137.904 51.5822 139.459 48.5955 140.792 44.7942C142.125 40.9435 143.211 36.4511 144.051 31.3169C144.594 28.2068 144.964 25.0719 145.161 21.9124C145.359 18.7035 145.285 15.7662 144.939 13.1003C144.643 10.3851 143.977 8.21297 142.94 6.58385C141.903 4.90535 140.397 4.06611 138.423 4.06611C136.251 4.06611 134.276 5.15219 132.499 7.32436C130.721 9.44715 129.166 12.4339 127.833 16.2845C126.501 20.0858 125.39 24.5536 124.501 29.6878Z" fill="#4C4B4B"/>
<path d="M164.23 3.25155C168.821 2.36293 173.634 1.99268 176.744 1.99268C190.296 1.99268 196.368 10.1383 194.517 21.0979C192.369 33.0941 182.594 38.2777 175.411 38.2777C173.264 38.2777 170.968 37.7593 169.043 36.8707L166.599 51.1626C166.007 54.5689 167.044 56.9386 169.191 58.0493V58.2715H154.899V58.0493C157.343 56.9386 159.046 54.643 159.564 51.1626L166.673 9.84209C167.192 6.88005 166.377 4.58447 164.23 3.4737V3.25155ZM173.782 9.32374L169.265 35.6119C170.672 36.0562 172.227 36.3524 173.56 36.3524C179.854 36.3524 184.964 31.1688 186.593 21.32C188.148 12.4339 186.075 3.69585 179.262 3.69585C176.004 3.69585 174.375 5.62118 173.782 9.32374Z" fill="#4C4B4B"/>
<path d="M152.522 42.9766H178.295" stroke="#4C4B4B" stroke-width="2"/>
</svg>
