<svg width="202" height="58" viewBox="0 0 202 58" fill="none" xmlns="http://www.w3.org/2000/svg">
<path d="M15.234 55.2164C17.8998 55.2164 20.2694 54.2044 22.3429 52.1803C24.4163 50.1069 25.7986 47.0461 26.4897 42.998C27.1315 39.0486 26.7859 35.8397 25.453 33.3713C24.1201 30.903 22.022 29.1998 19.1587 28.2618C16.2954 27.2745 12.889 27.077 8.93964 27.6694L8.12507 27.4473L14.4194 1.23319H38.7082L37.005 7.45348H15.6042L12.5681 20.2643C16.4682 19.82 19.8745 20.1162 22.7872 21.1529C25.6999 22.1403 28.0942 23.6213 29.9701 25.596C31.8461 27.5707 33.1296 29.8416 33.8208 32.4087C34.5613 34.9758 34.7094 37.6663 34.2651 40.4803C33.7221 43.6891 32.4879 46.6265 30.5625 49.2923C28.6372 51.9088 26.2429 54.0069 23.3796 55.5867C20.5657 57.1171 17.5542 57.8823 14.3454 57.8823C12.1732 57.8823 10.001 57.512 7.82887 56.7715C5.70607 56.031 3.92885 54.9696 2.49719 53.5873C1.11491 52.205 0.473131 50.5265 0.571866 48.5518C0.571866 47.1202 0.991489 45.886 1.83073 44.8493C2.71935 43.8125 3.8548 43.2942 5.23708 43.2942C6.7181 43.2942 7.7795 43.9113 8.42128 45.1455C9.11242 46.3303 9.50736 47.7126 9.6061 49.2923C9.7542 51.3658 10.2479 52.8715 11.0871 53.8094C11.9757 54.7474 13.358 55.2164 15.234 55.2164ZM40.4443 27.5954C41.0861 23.7447 42.1228 20.1656 43.5545 16.858C44.9861 13.5504 46.6893 10.6377 48.664 8.11994C50.688 5.6022 52.8602 3.65219 55.1805 2.2699C57.5501 0.83825 60.0185 0.122423 62.5856 0.122423C65.4489 0.122423 67.8926 1.01104 69.9166 2.78826C71.9407 4.56549 73.5205 6.93512 74.6559 9.89716C75.8407 12.8098 76.5812 16.0681 76.8774 19.6719C77.1736 23.2264 77.0009 26.8055 76.3591 30.4093C75.7173 34.26 74.6806 37.8391 73.2489 41.1467C71.8173 44.4543 70.0894 47.367 68.0654 49.8847C66.0907 52.4025 63.9185 54.3772 61.5489 55.8088C59.2286 57.1911 56.8096 57.8823 54.2919 57.8823C51.3792 57.8823 48.9108 56.9936 46.8868 55.2164C44.8627 53.4392 43.2583 51.0942 42.0734 48.1816C40.938 45.2195 40.2222 41.9613 39.926 38.4068C39.6297 34.803 39.8025 31.1992 40.4443 27.5954ZM48.5899 28.1878C48.0963 31.2979 47.7507 34.4574 47.5532 37.6663C47.3557 40.8258 47.4051 43.7632 47.7013 46.4784C47.9975 49.1442 48.664 51.3164 49.7007 52.9949C50.7374 54.624 52.2431 55.4386 54.2178 55.4386C56.4393 55.4386 58.4387 54.3772 60.2159 52.2544C61.9932 50.0822 63.5482 47.0955 64.8812 43.2942C66.2141 39.4435 67.3002 34.9511 68.1394 29.8169C68.6824 26.7068 69.0527 23.5719 69.2502 20.4124C69.4476 17.2035 69.3736 14.2662 69.028 11.6003C68.7318 8.88513 68.0654 6.71297 67.0286 5.08385C65.9919 3.40535 64.4862 2.56611 62.5115 2.56611C60.3394 2.56611 58.3647 3.65219 56.5874 5.82436C54.8102 7.94715 53.2551 10.9339 51.9222 14.7845C50.5893 18.5858 49.4785 23.0536 48.5899 28.1878ZM81.3402 27.5954C81.9819 23.7447 83.0187 20.1656 84.4503 16.858C85.882 13.5504 87.5851 10.6377 89.5598 8.11994C91.5839 5.6022 93.7561 3.65219 96.0763 2.2699C98.446 0.83825 100.914 0.122423 103.481 0.122423C106.345 0.122423 108.788 1.01104 110.812 2.78826C112.837 4.56549 114.416 6.93512 115.552 9.89716C116.737 12.8098 117.477 16.0681 117.773 19.6719C118.069 23.2264 117.897 26.8055 117.255 30.4093C116.613 34.26 115.576 37.8391 114.145 41.1467C112.713 44.4543 110.985 47.367 108.961 49.8847C106.987 52.4025 104.814 54.3772 102.445 55.8088C100.124 57.1911 97.7054 57.8823 95.1877 57.8823C92.275 57.8823 89.8067 56.9936 87.7826 55.2164C85.7585 53.4392 84.1541 51.0942 82.9693 48.1816C81.8338 45.2195 81.118 41.9613 80.8218 38.4068C80.5256 34.803 80.6984 31.1992 81.3402 27.5954ZM89.4858 28.1878C88.9921 31.2979 88.6465 34.4574 88.4491 37.6663C88.2516 40.8258 88.301 43.7632 88.5972 46.4784C88.8934 49.1442 89.5598 51.3164 90.5965 52.9949C91.6333 54.624 93.139 55.4386 95.1137 55.4386C97.3352 55.4386 99.3346 54.3772 101.112 52.2544C102.889 50.0822 104.444 47.0955 105.777 43.2942C107.11 39.4435 108.196 34.9511 109.035 29.8169C109.578 26.7068 109.949 23.5719 110.146 20.4124C110.343 17.2035 110.269 14.2662 109.924 11.6003C109.628 8.88513 108.961 6.71297 107.924 5.08385C106.888 3.40535 105.382 2.56611 103.407 2.56611C101.235 2.56611 99.2605 3.65219 97.4833 5.82436C95.7061 7.94715 94.151 10.9339 92.8181 14.7845C91.4852 18.5858 90.3744 23.0536 89.4858 28.1878ZM122.236 27.5954C122.878 23.7447 123.915 20.1656 125.346 16.858C126.778 13.5504 128.481 10.6377 130.456 8.11994C132.48 5.6022 134.652 3.65219 136.972 2.2699C139.342 0.83825 141.81 0.122423 144.377 0.122423C147.241 0.122423 149.684 1.01104 151.708 2.78826C153.732 4.56549 155.312 6.93512 156.448 9.89716C157.632 12.8098 158.373 16.0681 158.669 19.6719C158.965 23.2264 158.793 26.8055 158.151 30.4093C157.509 34.26 156.472 37.8391 155.041 41.1467C153.609 44.4543 151.881 47.367 149.857 49.8847C147.882 52.4025 145.71 54.3772 143.341 55.8088C141.02 57.1911 138.601 57.8823 136.084 57.8823C133.171 57.8823 130.703 56.9936 128.678 55.2164C126.654 53.4392 125.05 51.0942 123.865 48.1816C122.73 45.2195 122.014 41.9613 121.718 38.4068C121.421 34.803 121.594 31.1992 122.236 27.5954ZM130.382 28.1878C129.888 31.2979 129.542 34.4574 129.345 37.6663C129.147 40.8258 129.197 43.7632 129.493 46.4784C129.789 49.1442 130.456 51.3164 131.492 52.9949C132.529 54.624 134.035 55.4386 136.01 55.4386C138.231 55.4386 140.23 54.3772 142.008 52.2544C143.785 50.0822 145.34 47.0955 146.673 43.2942C148.006 39.4435 149.092 34.9511 149.931 29.8169C150.474 26.7068 150.844 23.5719 151.042 20.4124C151.239 17.2035 151.165 14.2662 150.82 11.6003C150.524 8.88513 149.857 6.71297 148.82 5.08385C147.784 3.40535 146.278 2.56611 144.303 2.56611C142.131 2.56611 140.156 3.65219 138.379 5.82436C136.602 7.94715 135.047 10.9339 133.714 14.7845C132.381 18.5858 131.27 23.0536 130.382 28.1878Z" fill="#4C4B4B"/>
<path d="M169.868 1.75155C174.459 0.862933 179.273 0.492678 182.383 0.492678C195.934 0.492678 202.006 8.6383 200.155 19.5979C198.008 31.5941 188.233 36.7777 181.05 36.7777C178.903 36.7777 176.607 36.2593 174.682 35.3707L172.238 49.6626C171.646 53.0689 172.682 55.4386 174.83 56.5493V56.7715H160.538V56.5493C162.982 55.4386 164.685 53.143 165.203 49.6626L172.312 8.34209C172.83 5.38005 172.016 3.08447 169.868 1.9737V1.75155ZM179.421 7.82374L174.904 34.1119C176.311 34.5562 177.866 34.8524 179.199 34.8524C185.493 34.8524 190.603 29.6688 192.232 19.82C193.787 10.9339 191.713 2.19585 184.901 2.19585C181.642 2.19585 180.013 4.12118 179.421 7.82374Z" fill="#4C4B4B"/>
<path d="M158.161 41.4766H183.934" stroke="#4C4B4B" stroke-width="2"/>
</svg>
