<svg width="242" height="59" viewBox="0 0 242 59" fill="none" xmlns="http://www.w3.org/2000/svg">
<path d="M0.138716 56.4569C1.47163 56.1114 2.65645 55.3708 3.69317 54.2354C4.72988 53.0999 5.44571 51.4708 5.84065 49.348L12.0609 12.3225C12.3078 10.7921 12.135 9.40982 11.5426 8.17563C10.9502 6.94145 10.0369 6.07752 8.80269 5.58385V4.84334C10.8268 4.64587 12.9495 4.20156 15.1711 3.51042C17.442 2.7699 19.3673 1.80724 20.9471 0.622423H21.3173L13.0236 49.348C12.678 51.4708 12.8261 53.0999 13.4679 54.2354C14.1097 55.3708 14.9983 56.1114 16.1337 56.4569V57.2715H0.138716V56.4569ZM24.5287 28.0954C25.1705 24.2447 26.2072 20.6656 27.6388 17.358C29.0705 14.0504 30.7737 11.1377 32.7484 8.61994C34.7724 6.1022 36.9446 4.15219 39.2649 2.7699C41.6345 1.33825 44.1029 0.622423 46.67 0.622423C49.5333 0.622423 51.977 1.51104 54.001 3.28826C56.0251 5.06549 57.6048 7.43512 58.7403 10.3972C59.9251 13.3098 60.6656 16.5681 60.9618 20.1719C61.258 23.7264 61.0852 27.3055 60.4435 30.9093C59.8017 34.76 58.765 38.3391 57.3333 41.6467C55.9017 44.9543 54.1738 47.867 52.1497 50.3847C50.1751 52.9025 48.0029 54.8772 45.6333 56.3088C43.313 57.6911 40.894 58.3823 38.3763 58.3823C35.4636 58.3823 32.9952 57.4936 30.9711 55.7164C28.9471 53.9392 27.3426 51.5942 26.1578 48.6816C25.0224 45.7195 24.3066 42.4613 24.0103 38.9068C23.7141 35.303 23.8869 31.6992 24.5287 28.0954ZM32.6743 28.6878C32.1806 31.7979 31.8351 34.9574 31.6376 38.1663C31.4401 41.3258 31.4895 44.2632 31.7857 46.9784C32.0819 49.6442 32.7484 51.8164 33.7851 53.4949C34.8218 55.124 36.3275 55.9386 38.3022 55.9386C40.5237 55.9386 42.5231 54.8772 44.3003 52.7544C46.0776 50.5822 47.6326 47.5955 48.9656 43.7942C50.2985 39.9435 51.3846 35.4511 52.2238 30.3169C52.7668 27.2068 53.1371 24.0719 53.3346 20.9124C53.532 17.7035 53.458 14.7662 53.1124 12.1003C52.8162 9.38513 52.1497 7.21297 51.113 5.58385C50.0763 3.90535 48.5706 3.06611 46.5959 3.06611C44.4238 3.06611 42.4491 4.15219 40.6718 6.32436C38.8946 8.44715 37.3395 11.4339 36.0066 15.2845C34.6737 19.0858 33.5629 23.5536 32.6743 28.6878ZM77.6112 28.0954C78.2529 24.2447 79.2897 20.6656 80.7213 17.358C82.153 14.0504 83.8561 11.1377 85.8308 8.61994C87.8549 6.1022 90.0271 4.15219 92.3473 2.7699C94.717 1.33825 97.1853 0.622423 99.7524 0.622423C102.616 0.622423 105.059 1.51104 107.083 3.28826C109.108 5.06549 110.687 7.43512 111.823 10.3972C113.008 13.3098 113.748 16.5681 114.044 20.1719C114.34 23.7264 114.168 27.3055 113.526 30.9093C112.884 34.76 111.847 38.3391 110.416 41.6467C108.984 44.9543 107.256 47.867 105.232 50.3847C103.258 52.9025 101.085 54.8772 98.7157 56.3088C96.3954 57.6911 93.9764 58.3823 91.4587 58.3823C88.546 58.3823 86.0777 57.4936 84.0536 55.7164C82.0295 53.9392 80.4251 51.5942 79.2403 48.6816C78.1048 45.7195 77.389 42.4613 77.0928 38.9068C76.7966 35.303 76.9694 31.6992 77.6112 28.0954ZM85.7568 28.6878C85.2631 31.7979 84.9175 34.9574 84.7201 38.1663C84.5226 41.3258 84.572 44.2632 84.8682 46.9784C85.1644 49.6442 85.8308 51.8164 86.8675 53.4949C87.9043 55.124 89.41 55.9386 91.3847 55.9386C93.6062 55.9386 95.6056 54.8772 97.3828 52.7544C99.16 50.5822 100.715 47.5955 102.048 43.7942C103.381 39.9435 104.467 35.4511 105.306 30.3169C105.849 27.2068 106.22 24.0719 106.417 20.9124C106.614 17.7035 106.54 14.7662 106.195 12.1003C105.899 9.38513 105.232 7.21297 104.195 5.58385C103.159 3.90535 101.653 3.06611 99.6784 3.06611C97.5062 3.06611 95.5315 4.15219 93.7543 6.32436C91.9771 8.44715 90.422 11.4339 89.0891 15.2845C87.7562 19.0858 86.6454 23.5536 85.7568 28.6878ZM118.507 28.0954C119.149 24.2447 120.186 20.6656 121.617 17.358C123.049 14.0504 124.752 11.1377 126.727 8.61994C128.751 6.1022 130.923 4.15219 133.243 2.7699C135.613 1.33825 138.081 0.622423 140.648 0.622423C143.512 0.622423 145.955 1.51104 147.979 3.28826C150.003 5.06549 151.583 7.43512 152.719 10.3972C153.903 13.3098 154.644 16.5681 154.94 20.1719C155.236 23.7264 155.064 27.3055 154.422 30.9093C153.78 34.76 152.743 38.3391 151.312 41.6467C149.88 44.9543 148.152 47.867 146.128 50.3847C144.153 52.9025 141.981 54.8772 139.612 56.3088C137.291 57.6911 134.872 58.3823 132.355 58.3823C129.442 58.3823 126.974 57.4936 124.949 55.7164C122.925 53.9392 121.321 51.5942 120.136 48.6816C119.001 45.7195 118.285 42.4613 117.989 38.9068C117.692 35.303 117.865 31.6992 118.507 28.0954ZM126.653 28.6878C126.159 31.7979 125.813 34.9574 125.616 38.1663C125.418 41.3258 125.468 44.2632 125.764 46.9784C126.06 49.6442 126.727 51.8164 127.763 53.4949C128.8 55.124 130.306 55.9386 132.281 55.9386C134.502 55.9386 136.501 54.8772 138.279 52.7544C140.056 50.5822 141.611 47.5955 142.944 43.7942C144.277 39.9435 145.363 35.4511 146.202 30.3169C146.745 27.2068 147.115 24.0719 147.313 20.9124C147.51 17.7035 147.436 14.7662 147.091 12.1003C146.795 9.38513 146.128 7.21297 145.091 5.58385C144.055 3.90535 142.549 3.06611 140.574 3.06611C138.402 3.06611 136.427 4.15219 134.65 6.32436C132.873 8.44715 131.318 11.4339 129.985 15.2845C128.652 19.0858 127.541 23.5536 126.653 28.6878ZM159.403 28.0954C160.045 24.2447 161.081 20.6656 162.513 17.358C163.945 14.0504 165.648 11.1377 167.623 8.61994C169.647 6.1022 171.819 4.15219 174.139 2.7699C176.509 1.33825 178.977 0.622423 181.544 0.622423C184.407 0.622423 186.851 1.51104 188.875 3.28826C190.899 5.06549 192.479 7.43512 193.614 10.3972C194.799 13.3098 195.54 16.5681 195.836 20.1719C196.132 23.7264 195.959 27.3055 195.318 30.9093C194.676 34.76 193.639 38.3391 192.207 41.6467C190.776 44.9543 189.048 47.867 187.024 50.3847C185.049 52.9025 182.877 54.8772 180.507 56.3088C178.187 57.6911 175.768 58.3823 173.25 58.3823C170.338 58.3823 167.869 57.4936 165.845 55.7164C163.821 53.9392 162.217 51.5942 161.032 48.6816C159.897 45.7195 159.181 42.4613 158.885 38.9068C158.588 35.303 158.761 31.6992 159.403 28.0954ZM167.548 28.6878C167.055 31.7979 166.709 34.9574 166.512 38.1663C166.314 41.3258 166.364 44.2632 166.66 46.9784C166.956 49.6442 167.623 51.8164 168.659 53.4949C169.696 55.124 171.202 55.9386 173.176 55.9386C175.398 55.9386 177.397 54.8772 179.175 52.7544C180.952 50.5822 182.507 47.5955 183.84 43.7942C185.173 39.9435 186.259 35.4511 187.098 30.3169C187.641 27.2068 188.011 24.0719 188.209 20.9124C188.406 17.7035 188.332 14.7662 187.987 12.1003C187.69 9.38513 187.024 7.21297 185.987 5.58385C184.95 3.90535 183.445 3.06611 181.47 3.06611C179.298 3.06611 177.323 4.15219 175.546 6.32436C173.769 8.44715 172.214 11.4339 170.881 15.2845C169.548 19.0858 168.437 23.5536 167.548 28.6878Z" fill="#4C4B4B"/>
<path d="M209.087 2.25155C213.678 1.36293 218.492 0.992678 221.602 0.992678C235.153 0.992678 241.225 9.1383 239.374 20.0979C237.226 32.0941 227.452 37.2777 220.269 37.2777C218.121 37.2777 215.826 36.7593 213.9 35.8707L211.457 50.1626C210.864 53.5689 211.901 55.9386 214.048 57.0493V57.2715H199.757V57.0493C202.2 55.9386 203.903 53.643 204.422 50.1626L211.531 8.84209C212.049 5.88005 211.235 3.58447 209.087 2.4737V2.25155ZM218.64 8.32374L214.123 34.6119C215.53 35.0562 217.085 35.3524 218.417 35.3524C224.712 35.3524 229.821 30.1688 231.45 20.32C233.006 11.4339 230.932 2.69585 224.119 2.69585C220.861 2.69585 219.232 4.62118 218.64 8.32374Z" fill="#4C4B4B"/>
<path d="M197.38 41.9766H223.152" stroke="#4C4B4B" stroke-width="2"/>
</svg>
