<svg width="238" height="59" viewBox="0 0 238 59" fill="none" xmlns="http://www.w3.org/2000/svg">
<path d="M0.174162 56.4569C1.50708 56.1114 2.6919 55.3708 3.72861 54.2354C4.76533 53.0999 5.48115 51.4708 5.87609 49.348L12.0964 12.3225C12.3432 10.7921 12.1704 9.40982 11.578 8.17563C10.9856 6.94145 10.0723 6.07752 8.83814 5.58385V4.84334C10.8622 4.64587 12.985 4.20156 15.2065 3.51042C17.4774 2.7699 19.4028 1.80724 20.9825 0.622423H21.3528L13.059 49.348C12.7135 51.4708 12.8616 53.0999 13.5034 54.2354C14.1451 55.3708 15.0337 56.1114 16.1692 56.4569V57.2715H0.174162V56.4569ZM33.7413 55.7164C36.4071 55.7164 38.7767 54.7044 40.8502 52.6803C42.9236 50.6069 44.3059 47.5461 44.997 43.498C45.6388 39.5486 45.2932 36.3397 43.9603 33.8713C42.6274 31.403 40.5293 29.6998 37.666 28.7618C34.8027 27.7745 31.3963 27.577 27.4469 28.1694L26.6324 27.9473L32.9267 1.73319H57.2155L55.5123 7.95348H34.1115L31.0754 20.7643C34.9755 20.32 38.3818 20.6162 41.2945 21.6529C44.2072 22.6403 46.6015 24.1213 48.4774 26.096C50.3534 28.0707 51.6369 30.3416 52.3281 32.9087C53.0686 35.4758 53.2167 38.1663 52.7724 40.9803C52.2294 44.1891 50.9952 47.1265 49.0698 49.7923C47.1445 52.4088 44.7502 54.5069 41.8869 56.0867C39.0729 57.6171 36.0615 58.3823 32.8527 58.3823C30.6805 58.3823 28.5083 58.012 26.3362 57.2715C24.2134 56.531 22.4361 55.4696 21.0045 54.0873C19.6222 52.705 18.9804 51.0265 19.0792 49.0518C19.0792 47.6202 19.4988 46.386 20.338 45.3493C21.2266 44.3125 22.3621 43.7942 23.7444 43.7942C25.2254 43.7942 26.2868 44.4113 26.9286 45.6455C27.6197 46.8303 28.0147 48.2126 28.1134 49.7923C28.2615 51.8658 28.7552 53.3715 29.5944 54.3094C30.483 55.2474 31.8653 55.7164 33.7413 55.7164ZM71.1382 28.0954C71.78 24.2447 72.8167 20.6656 74.2484 17.358C75.68 14.0504 77.3832 11.1377 79.3579 8.61994C81.3819 6.1022 83.5541 4.15219 85.8744 2.7699C88.244 1.33825 90.7124 0.622423 93.2795 0.622423C96.1428 0.622423 98.5865 1.51104 100.611 3.28826C102.635 5.06549 104.214 7.43512 105.35 10.3972C106.535 13.3098 107.275 16.5681 107.571 20.1719C107.868 23.7264 107.695 27.3055 107.053 30.9093C106.411 34.76 105.374 38.3391 103.943 41.6467C102.511 44.9543 100.783 47.867 98.7593 50.3847C96.7846 52.9025 94.6124 54.8772 92.2428 56.3088C89.9225 57.6911 87.5035 58.3823 84.9858 58.3823C82.0731 58.3823 79.6047 57.4936 77.5807 55.7164C75.5566 53.9392 73.9522 51.5942 72.7673 48.6816C71.6319 45.7195 70.9161 42.4613 70.6199 38.9068C70.3237 35.303 70.4964 31.6992 71.1382 28.0954ZM79.2838 28.6878C78.7902 31.7979 78.4446 34.9574 78.2471 38.1663C78.0496 41.3258 78.099 44.2632 78.3952 46.9784C78.6914 49.6442 79.3579 51.8164 80.3946 53.4949C81.4313 55.124 82.937 55.9386 84.9117 55.9386C87.1332 55.9386 89.1326 54.8772 90.9098 52.7544C92.6871 50.5822 94.2421 47.5955 95.5751 43.7942C96.908 39.9435 97.9941 35.4511 98.8333 30.3169C99.3764 27.2068 99.7466 24.0719 99.9441 20.9124C100.142 17.7035 100.067 14.7662 99.7219 12.1003C99.4257 9.38513 98.7593 7.21297 97.7225 5.58385C96.6858 3.90535 95.1801 3.06611 93.2054 3.06611C91.0333 3.06611 89.0586 4.15219 87.2813 6.32436C85.5041 8.44715 83.949 11.4339 82.6161 15.2845C81.2832 19.0858 80.1724 23.5536 79.2838 28.6878ZM112.034 28.0954C112.676 24.2447 113.713 20.6656 115.144 17.358C116.576 14.0504 118.279 11.1377 120.254 8.61994C122.278 6.1022 124.45 4.15219 126.77 2.7699C129.14 1.33825 131.608 0.622423 134.175 0.622423C137.039 0.622423 139.482 1.51104 141.506 3.28826C143.53 5.06549 145.11 7.43512 146.246 10.3972C147.43 13.3098 148.171 16.5681 148.467 20.1719C148.763 23.7264 148.591 27.3055 147.949 30.9093C147.307 34.76 146.27 38.3391 144.839 41.6467C143.407 44.9543 141.679 47.867 139.655 50.3847C137.68 52.9025 135.508 54.8772 133.139 56.3088C130.818 57.6911 128.399 58.3823 125.882 58.3823C122.969 58.3823 120.501 57.4936 118.477 55.7164C116.452 53.9392 114.848 51.5942 113.663 48.6816C112.528 45.7195 111.812 42.4613 111.516 38.9068C111.22 35.303 111.392 31.6992 112.034 28.0954ZM120.18 28.6878C119.686 31.7979 119.34 34.9574 119.143 38.1663C118.945 41.3258 118.995 44.2632 119.291 46.9784C119.587 49.6442 120.254 51.8164 121.29 53.4949C122.327 55.124 123.833 55.9386 125.808 55.9386C128.029 55.9386 130.028 54.8772 131.806 52.7544C133.583 50.5822 135.138 47.5955 136.471 43.7942C137.804 39.9435 138.89 35.4511 139.729 30.3169C140.272 27.2068 140.642 24.0719 140.84 20.9124C141.037 17.7035 140.963 14.7662 140.618 12.1003C140.322 9.38513 139.655 7.21297 138.618 5.58385C137.582 3.90535 136.076 3.06611 134.101 3.06611C131.929 3.06611 129.954 4.15219 128.177 6.32436C126.4 8.44715 124.845 11.4339 123.512 15.2845C122.179 19.0858 121.068 23.5536 120.18 28.6878ZM152.93 28.0954C153.572 24.2447 154.608 20.6656 156.04 17.358C157.472 14.0504 159.175 11.1377 161.15 8.61994C163.174 6.1022 165.346 4.15219 167.666 2.7699C170.036 1.33825 172.504 0.622423 175.071 0.622423C177.935 0.622423 180.378 1.51104 182.402 3.28826C184.426 5.06549 186.006 7.43512 187.142 10.3972C188.326 13.3098 189.067 16.5681 189.363 20.1719C189.659 23.7264 189.486 27.3055 188.845 30.9093C188.203 34.76 187.166 38.3391 185.735 41.6467C184.303 44.9543 182.575 47.867 180.551 50.3847C178.576 52.9025 176.404 54.8772 174.034 56.3088C171.714 57.6911 169.295 58.3823 166.777 58.3823C163.865 58.3823 161.396 57.4936 159.372 55.7164C157.348 53.9392 155.744 51.5942 154.559 48.6816C153.424 45.7195 152.708 42.4613 152.412 38.9068C152.115 35.303 152.288 31.6992 152.93 28.0954ZM161.076 28.6878C160.582 31.7979 160.236 34.9574 160.039 38.1663C159.841 41.3258 159.891 44.2632 160.187 46.9784C160.483 49.6442 161.15 51.8164 162.186 53.4949C163.223 55.124 164.729 55.9386 166.703 55.9386C168.925 55.9386 170.924 54.8772 172.702 52.7544C174.479 50.5822 176.034 47.5955 177.367 43.7942C178.7 39.9435 179.786 35.4511 180.625 30.3169C181.168 27.2068 181.538 24.0719 181.736 20.9124C181.933 17.7035 181.859 14.7662 181.514 12.1003C181.217 9.38513 180.551 7.21297 179.514 5.58385C178.478 3.90535 176.972 3.06611 174.997 3.06611C172.825 3.06611 170.85 4.15219 169.073 6.32436C167.296 8.44715 165.741 11.4339 164.408 15.2845C163.075 19.0858 161.964 23.5536 161.076 28.6878Z" fill="#4C4B4B"/>
<path d="M205.868 2.25155C210.459 1.36293 215.273 0.992678 218.383 0.992678C231.934 0.992678 238.006 9.1383 236.155 20.0979C234.008 32.0941 224.233 37.2777 217.05 37.2777C214.903 37.2777 212.607 36.7593 210.682 35.8707L208.238 50.1626C207.646 53.5689 208.682 55.9386 210.83 57.0493V57.2715H196.538V57.0493C198.982 55.9386 200.685 53.643 201.203 50.1626L208.312 8.84209C208.83 5.88005 208.016 3.58447 205.868 2.4737V2.25155ZM215.421 8.32374L210.904 34.6119C212.311 35.0562 213.866 35.3524 215.199 35.3524C221.493 35.3524 226.603 30.1688 228.232 20.32C229.787 11.4339 227.713 2.69585 220.901 2.69585C217.642 2.69585 216.013 4.62118 215.421 8.32374Z" fill="#4C4B4B"/>
<path d="M194.161 41.9766H219.934" stroke="#4C4B4B" stroke-width="2"/>
</svg>
