<svg width="45" height="57" viewBox="0 0 45 57" fill="none" xmlns="http://www.w3.org/2000/svg">
<path d="M12.2296 1.25155C16.8208 0.362933 21.6341 -0.00732182 24.7443 -0.00732182C38.2956 -0.00732182 44.3678 8.1383 42.5165 19.0979C40.369 31.0941 30.5943 36.2777 23.4113 36.2777C21.2639 36.2777 18.9683 35.7593 17.043 34.8707L14.5993 49.1626C14.0069 52.5689 15.0436 54.9386 17.1911 56.0493V56.2715H2.8992V56.0493C5.34289 54.9386 7.04606 52.643 7.56442 49.1626L14.6733 7.84209C15.1917 4.88005 14.3771 2.58447 12.2296 1.4737V1.25155ZM21.7822 7.32374L17.2651 33.6119C18.6721 34.0562 20.2272 34.3524 21.5601 34.3524C27.8544 34.3524 32.9639 29.1688 34.5931 19.32C36.1481 10.4339 34.0747 1.69585 27.262 1.69585C24.0038 1.69585 22.3746 3.62118 21.7822 7.32374Z" fill="#4C4B4B"/>
<path d="M0.522461 40.9766H26.2949" stroke="#4C4B4B" stroke-width="2"/>
</svg>
